<svg width="512" height="512" viewBox="0 0 512 512" fill="none" xmlns="http://www.w3.org/2000/svg">
<path d="M510.52 255.82C440.55 254.97 384.05 198.13 384.05 127.96C313.88 127.96 257.05 71.47 256.19 1.50995C228.93 -2.63005 201.06 1.80995 176.47 14.33L107.34 49.5499C82.4541 62.2323 62.2236 82.4697 49.5499 107.36L14.4499 176.24C1.73846 201.193 -2.74916 229.53 1.62991 257.19L13.7099 333.46C18.0846 361.093 31.0924 386.632 50.8699 406.42L105.64 461.18C125.355 480.901 150.808 493.875 178.35 498.24L255.06 510.39C282.57 514.75 310.76 510.28 335.59 497.63L404.72 462.42C429.604 449.735 449.833 429.498 462.51 404.61L497.61 335.73C510.17 311.09 514.62 283.15 510.52 255.82V255.82ZM176 368C158.33 368 144 353.67 144 336C144 318.33 158.33 304 176 304C193.67 304 208 318.33 208 336C208 353.67 193.67 368 176 368ZM208 208C190.33 208 176 193.67 176 176C176 158.33 190.33 144 208 144C225.67 144 240 158.33 240 176C240 193.67 225.67 208 208 208ZM368 336C350.33 336 336 321.67 336 304C336 286.33 350.33 272 368 272C385.67 272 400 286.33 400 304C400 321.67 385.67 336 368 336Z" fill="url(#paint0_linear_15_39)"/>
<defs>
<linearGradient id="paint0_linear_15_39" x1="512" y1="-3.04797e-05" x2="-3.04797e-05" y2="512" gradientUnits="userSpaceOnUse">
<stop stop-color="#D28B39"/>
<stop offset="1" stop-color="#BF7727"/>
</linearGradient>
</defs>
</svg>
